/* XPM */
static const char *bitcoin32_xpm[] = {
/* columns rows colors chars-per-pixel */
"32 26 406 2",
"yO c #D6BE7E",
"F  c #D0B37C",
"4X c #904E0C",
".X c #8A490B",
"8o c #A26F1A",
"|. c #BD781C",
"G. c #EDAC28",
"`. c #E7A125",
"6. c #DB9723",
"B  c #A2661A",
"no c #AB721E",
"r. c #9C611A",
"$X c #F3B42C",
"!  c #EED58D",
"9O c #7E4B17",
"lo c #A87A22",
"fX c #E19F28",
"^. c #F9BF31",
"zX c #93551A",
"n  c #B47B24",
"X  c #FDE094",
"2. c #D0BF8E",
"So c #FFCA39",
"pX c #B7822A",
"oO c #A86E26",
"+  c #E2D197",
"jo c #FFD03E",
"XO c #906026",
"V. c #FFCD3F",
"Fo c #F0C840",
"}  c #FFD041",
"KX c #DB9D37",
"zo c #9C7335",
"0  c #AB8139",
"p. c #FFD04A",
"6  c #EAB445",
"V  c #AB7838",
"b  c #C39241",
"<  c #B18940",
"_o c #AB8443",
"[  c #FFDF61",
"co c #BA9251",
"e. c #C69F58",
"%O c #A58253",
"G  c #CFAE5E",
"bo c #BD9959",
"I  c #FFE26E",
"/X c #DBB564",
".  c #FCCF6A",
" O c #D5B972",
"0. c #E4C779",
"R. c #F3D57F",
"UX c #EDD380",
"tO c #D8C07F",
"c. c #8C4B0C",
"E. c #8C4E0D",
"/o c #77470E",
"No c #A46214",
"U. c #C57F1B",
"'  c #FFEE8F",
"x. c #D79121",
"}. c #CB811E",
"qX c #EFAE29",
"q. c #BF8320",
"-X c #E39B24",
";X c #E09723",
"5. c #F2B22B",
">  c #9E6F1F",
"x  c #985E1A",
"eo c #8C5719",
"ao c #E09725",
"t. c #AA701F",
"=  c #FCDE91",
"~. c #FBC434",
"`X c #C58826",
"7X c #955A1D",
"Oo c #F8C035",
"C. c #FEC838",
"3X c #DA952B",
"Go c #C29930",
"$O c #B3762A",
"S. c #D4A235",
"~o c #986D2B",
"0X c #F2BB3C",
"m. c #A7722C",
"aX c #BF8C34",
"nX c #AD8635",
"#X c #F8C342",
"GX c #9E692F",
"xo c #B98435",
"Ko c #B98437",
"h  c #F3E1A5",
"Yo c #B68639",
"<O c #9B743B",
"!. c #F5C54E",
"pO c #9E753F",
" o c #ECB34B",
">o c #DAA448",
"&O c #956C3E",
"O. c #BF8C44",
"+O c #C89B4B",
"B. c #E0B553",
"r  c #CBA853",
"a  c #BF9551",
"7  c #FBCA5F",
"6O c #B09357",
"/  c #C8A45F",
"%  c #F8D26F",
"*O c #C2A86B",
"^X c #D4B46D",
"XX c #E0C177",
"Xo c #FFFDE4",
"4  c #E9D083",
"SX c #A06211",
")X c #94550F",
";o c #B87917",
"#  c #E9D085",
"=o c #9D5E12",
"+o c #8E5914",
"l. c #E5A025",
"po c #B8791E",
"1X c #D68920",
"ZX c #A3691B",
";O c #945E1A",
"oX c #E9CD8B",
"Ao c #EEB52F",
"mX c #C48926",
"-o c #E5A92F",
" . c #FDC636",
"S  c #F8E19A",
"). c #D09C32",
"q  c #A6792D",
"5o c #BE9335",
"<X c #C18E36",
"qo c #A67631",
"D  c #AF7F35",
"o  c #FBE8A8",
"{o c #9D7338",
",X c #CD9E44",
")  c #C19745",
"5O c #97713E",
"M. c #DFB95C",
"d  c #E8B95C",
"u. c #FDDE6C",
"qO c #C4A15F",
"{X c #E8B665",
":O c #CDAD67",
"^  c #F7D378",
":. c #F8F6DF",
"*. c #EBD585",
"[o c #D9C081",
"^o c #7B4B11",
"WX c #BA7E1C",
"M  c #A26416",
"$. c #EDAA27",
"Ho c #8A5C19",
"yX c #DE9322",
"H. c #EAA627",
"R  c #BA7B1E",
"&o c #BA7E20",
"TX c #E19724",
"NX c #DB8F22",
"%. c #EED68D",
"I. c #D58D22",
"OX c #995E1B",
"(  c #A26A20",
"Z. c #FCC435",
"7. c #D8942B",
"[X c #F4DE97",
"~X c #A87227",
"Do c #FFD13F",
"<o c #9C772C",
"p  c #BA8731",
"Mo c #B17E30",
"o. c #D59634",
"@o c #C08F35",
"BX c #AB8234",
"w  c #E5D69F",
":  c #A88135",
"l  c #EBDEA8",
"1. c #A58644",
"*  c #FCC44F",
"v  c #C09245",
"&X c #B4914C",
"to c #C69D50",
"'o c #A27F4F",
"vo c #C09E5C",
"]  c #FFE675",
"P  c #FFE981",
"|o c #DEC37C",
"K  c #EDD480",
"*o c #E7CC7E",
"yo c #9B5D0E",
"uO c #D5BD7E",
"dX c #9E6112",
"gX c #98560F",
"Q. c #89480D",
"2X c #AA6815",
"N. c #955511",
"=. c #925412",
">O c #E7D289",
"m  c #A76A19",
"eX c #E9A426",
"=X c #E6A025",
"~  c #CE8F23",
"}X c #DD9122",
"io c #CE8F24",
"X. c #ECAB2B",
"3. c #EAD391",
"g. c #E3AB30",
"1  c #A47526",
"W. c #B37A26",
"`o c #C2852B",
"'X c #DD972E",
"Vo c #C59231",
".O c #9B6C2D",
"Q  c #A46F30",
"<. c #DBCEA0",
"2O c #8C5E2F",
"0O c #A77C3B",
"J  c #B3833C",
"!o c #B68D40",
"rX c #B38F43",
"C  c #EDDAAB",
"4O c #957341",
"+X c #D1A24A",
"@O c #C2944A",
"lX c #B0824C",
";  c #B99A55",
"#. c #E3BD63",
"4o c #FFF8CD",
"`  c #DDBB6C",
"8O c #C2A66A",
"5  c #F5D276",
"5X c #DDBE75",
"wO c #D7B976",
"Io c #D1B475",
"J. c #F2CB79",
"hX c #E0C57A",
",o c #FFFEE3",
"a. c #FFFBE4",
"f  c #73480E",
"K. c #FFFEE7",
"W  c #DABD83",
"Bo c #B8771B",
"7O c #DAC688",
"CX c #D69322",
"F. c #F1B12A",
"bX c #E29A24",
"PX c #DF9623",
"Uo c #855118",
"f. c #F7BC2F",
"fo c #F7B92F",
"i  c #A97220",
".o c #F8DC91",
"O  c #E9D493",
"VX c #C48D2B",
"c  c #A06924",
"#o c #C7942F",
"oo c #D6A534",
"QX c #B5822D",
"4. c #D3A135",
"L. c #E5A436",
"ko c #FAD244",
"2  c #B28738",
"Lo c #945C2E",
"s  c #F2DDA4",
"#O c #B5853C",
"}o c #B58840",
",  c #B28D46",
"-O c #A37C43",
"&  c #F4C455",
"[. c #F8E8B9",
"YX c #E8B765",
"T. c #DCB96C",
"j. c #C1AA76",
"wo c #DCBF7B",
"k. c #F4D083",
"uo c #B77516",
"_. c #EDAB28",
"'. c #E49C24",
"]. c #E19823",
":X c #DE9422",
"%X c #F0AF2A",
"MX c #DB9022",
"(o c #815419",
"Eo c #99651C",
"/. c #F6BA2E",
"so c #EAA428",
"FX c #E8CC8C",
"!X c #CF9226",
"T  c #EAAD2F",
"@  c #E2D091",
"go c #FCC234",
"JX c #A26821",
"ho c #FFC938",
"7o c #FFCF3D",
"xX c #E7AC3B",
"y. c #A56F2E",
"8. c #E7B541",
"1O c #906832",
"i. c #FFD54B",
"h. c #FAE4A9",
"{  c #FFD850",
"e  c #C3A050",
"Z  c #E1B052",
"@. c #BD924E",
"E  c #C39753",
"b. c #D5AC58",
"]o c #AE8D54",
"-. c #D5AF5F",
",O c #C0A260",
";. c #DBC067",
"8X c #C9A265",
"iO c #C0A267",
"mo c #DEBE72",
"To c #DEC17A",
"DX c #E1C87E",
"rO c #D8BF7D",
"=O c #D5BE80",
"@X c #86450C",
"_X c #B6791B",
" X c #CB831C",
"9X c #8F4E11",
"wX c #ECA928",
"IX c #DD9222",
"uX c #DA8E21",
"k  c #A16F20",
"0o c #C88222",
"+. c #985D1B",
"Co c #A77422",
"&. c #A16920",
"Jo c #865A1F",
"tX c #C88E2A",
":o c #C58728",
"|  c #FECA3A",
"*X c #CB952E",
"9o c #986925",
"s. c #D7A837",
"{. c #C89131",
")o c #8F662A",
"z  c #A7742C",
"y  c #C29235",
"Y  c #FBC944",
"8  c #F6E1A4",
"6X c #EAD4A2",
"3O c #8C5F31",
"Qo c #CB9E41",
"OO c #C29241",
"U  c #FED959",
"g  c #F8C557",
",. c #A7894F",
"%o c #BF9A55",
"$o c #C8A359",
"(. c #BC9C59",
"(X c #C29B5A",
"w. c #F2C966",
"H  c #945710",
"kX c #85460C",
"L  c #FEEB8D",
"9. c #945412",
"Zo c #C1871F",
"_  c #8E4F12",
"P. c #C47C1C",
"AX c #E5A828",
"sX c #D98F21",
"z. c #CD851F",
"A  c #F4B029",
"cX c #E8A326",
"vX c #E59F25",
"3o c #FFFFED",
">X c #DC9022",
"iX c #D98C21",
"D. c #F4B62C",
"$  c #F8E08F",
"|X c #E29824",
"do c #F1AF2B",
"LX c #E29B26",
"]X c #D98F25",
"d. c #FAC132",
"Wo c #BE8024",
">. c #FFFFF2",
".. c #FAC134",
"Y. c #9A5F22",
"6o c #E5B437",
"j  c #A97C2F",
"1o c #9D782F",
"   c #FFFFFF",
"-  c #E9DBA7",
"N  c #EBBC48",
"Ro c #B5893F",
"jX c #EFDAA9",
"t  c #C49A44",
"2o c #A98842",
"3  c #BB9143",
"v. c #BB914F",
"u  c #E8C45F",
"Po c #B29155",
"ro c #D6AF5D",
"9  c #BE9E5B",
"EX c #FEF7D0",
"RX c #F1C770",
"HX c #D9B66E",
"n. c #F4D477",
"A. c #FEF7DB",
"eO c #D6BB79",
/* pixels */
"                                                                ",
"                                                                ",
"                      . X o O + @ # $ % &                       ",
"                  * = - ; : > , < 1 2 3 4 5 6                   ",
"                7 8 9 0 q w e r t y u i p a s d f f f           ",
"              g h j k l z x c v b n m M N B V C Z f f           ",
"            A S D F G H J K L P I U Y T R E W Q ! ~ f           ",
"            ^ / ( ) _ ` ' ] [ { } |  ...X.o.O.+.@.#.f           ",
"          $.%.&.*.=.-.;.:.>.,.<.1.2.3.4.5.6.7.8.9.0.q.          ",
"          w.e.r.t.y.u.i.p.a.s.d.f.g.h.j.k.l.z.x.c.v.b.          ",
"          n.m.M.N.B.V.C.Z.A.S.D.F.G.H.J.K.L.P.I.U.Y.T.          ",
"          R.E.W.Q.!.~.^./.(.)._.H.`.'.].[.{.}.|. X.XXX          ",
"          oXOX+X@X#X/.$X%X&X*X=X-X;X:X>X,X<X1X2X3X4X5X          ",
"          6X7X8X9X0XqXwXeXrXtX;XyX>XuXiXpXaXsXdXfXgXhX          ",
"          jXkXlXzXxXcXvXbXnXmXMXuXiXiXNXBXVXCXZXAXSXDX          ",
"          FXGXHXJXKXLXPXIXUXYXiXiX>XTXRXEXT WXQX!X~X^X          ",
"          /X(X)X_X`X'XNX]X[X{X}X|X o.oXoooOo+o@o#o$o%o          ",
"          &o*o=o-o;o:o>o,o<o1o2o3o4o5o6o7o8o9o0oqowoeo          ",
"            rotoyouoiopoaosodofogohojokolozoxocovobof           ",
"            nomoMoNoBoVoCoZoAoSoDoFoGoHoJoKoLoPoIoUof           ",
"              YoToRoEoWoQo!o~o^o/o(o)o_o`o'o]o[o{of f           ",
"                }o|o O.OXOoOOO+O@O#O$O%O&O*O=O-Of f f           ",
"                f ;O:O>O,O<O1O2O3O4O5O6O7O8O9Of f f f           ",
"                f f f 0OqOwOeOrOtOyOuOiOpOf f f f f f           ",
"                                                                ",
"                                                                "
};
