/* XPM */
static const char *bitcoin16_xpm[] = {
/* columns rows colors chars-per-pixel */
"16 13 114 2",
"m  c #AB7B42",
"p  c #BF7F1F",
"(  c #9D7931",
"G  c #E8CA8B",
"E  c #BB9753",
"O  c #D2BA75",
"'  c #C0984C",
"A  c #FAEFC9",
"   c #FFFFFF",
"9  c #DCB96F",
"*  c #C39330",
"X. c #D0A534",
"-. c #B49053",
"T  c #B17722",
"{  c #B17419",
"Y  c #C1A561",
"u  c #BCA162",
"=  c #B4812C",
" . c #F3B831",
"$. c #A56F27",
"J  c #B47B2C",
"F  c #C9A760",
"2  c #B7822B",
"k  c #B58B38",
"~  c #DFA850",
"t  c #E5DDBE",
"C  c #DF9623",
")  c #A47F35",
"&. c #C7A157",
",. c #BD9957",
"i  c #DBAE54",
"8  c #B07E38",
"<. c #B89558",
"W  c #D6AA54",
"<  c #E8CC83",
"B  c #CC993A",
"H  c #AB7A3F",
"|  c #DB9F2B",
"K  c #E29A27",
"D  c #BF7B18",
"v  c #B06F18",
"a  c #AE7B34",
"h  c #FAC439",
"j  c #FAD981",
"y  c #A58644",
"[  c #D2AD5E",
"L  c #CA9335",
":  c #BB8D48",
"R  c #C08523",
"!  c #B67D22",
"3  c #DABB66",
"#  c #EECB6D",
"P  c #AF7F29",
"n  c #E9CA7E",
"]  c #966B2E",
"V  c #F8E5BA",
";  c #B98433",
"-  c #AF7928",
"g  c #BE8836",
"o. c #AD8234",
"@  c #DDBC66",
"N  c #EEAD2C",
"w  c #BC852A",
"+. c #B5965B",
"Z  c #DC9122",
"*. c #BA944D",
"z  c #F1C677",
"O. c #B58A44",
"l  c #ECAA28",
";. c #B89D65",
"%. c #C99743",
"^  c #FCF6CE",
",  c #EAC882",
"d  c #F2D073",
"7  c #BA8537",
"q  c #C29649",
"X  c #F2D691",
"Q  c #BD8F43",
"/  c #9D772D",
"6  c #E3AC31",
"0  c #F2C45D",
".. c #F5C237",
"x  c #FFFDE4",
">  c #D9B97D",
"s  c #CFA24B",
"@. c #A46C1C",
"c  c #C2842C",
"`  c #B17E2A",
"b  c #D2AF64",
"&  c #B99241",
"=. c #C39A44",
"4  c #FBDF6D",
":. c #75480F",
"f  c #B17E32",
"5  c #FBD351",
"%  c #DFC481",
".  c #73480E",
"2. c #B2945F",
"1  c #BC8D37",
"I  c #D98C21",
"}  c #CB9026",
"$  c #FBD98A",
"e  c #E0BF62",
"M  c #BC842E",
"r  c #FEFEEF",
"o  c #DBC484",
"1. c #B59259",
">. c #CCAC67",
"#. c #CCA960",
"3. c #B3955C",
"_  c #C7962F",
"+  c #D4B76A",
"U  c #C98D2E",
"S  c #AB7220",
/* pixels */
"                                ",
"      . . X o O + @ # . . .     ",
"      $ % & * = - ; : > , .     ",
"      < 1 2 3 4 5 6 7 8 9 .     ",
"    0 q w e r t y u i p a s     ",
"    d f g h j k l z x c v b     ",
"    n m M N B V C Z A S D F     ",
"    G H J K L P I U Y T R E     ",
"    W Q ! ~ ^ / ( ) _ ` ' ]     ",
"      [ { } |  ...X.o.O.+..     ",
"      @.#.$.%.&.*.=.-.;.:..     ",
"      . . >.,.<.1.2.3.. . .     ",
"                                "
};
